<svg width="24" height="201" viewBox="0 0 24 201" fill="none" xmlns="http://www.w3.org/2000/svg">
<path d="M4.74995 198.498H19.2498C19.3898 198.498 19.4998 198.388 19.4998 198.248V179.748C19.4998 179.682 19.4735 179.618 19.4266 179.571C19.3797 179.525 19.3161 179.498 19.2498 179.498H4.74995C4.68365 179.498 4.62006 179.525 4.57318 179.571C4.52629 179.618 4.49995 179.682 4.49995 179.748V198.248C4.49995 198.388 4.60995 198.498 4.74995 198.498Z" stroke="#868686"/>
<path d="M7.99992 188.998H15.9998M7.99992 185.498H15.9998H7.99992ZM7.99992 192.498H12.9999H7.99992Z" stroke="#868686" stroke-linecap="round"/>
<path d="M14.9998 77.4992C14.9998 78.2949 14.6838 79.0579 14.1212 79.6205C13.5586 80.1831 12.7955 80.4992 11.9999 80.4992C11.2042 80.4992 10.4412 80.1831 9.87858 79.6205C9.31598 79.0579 8.99991 78.2949 8.99991 77.4992" stroke="#868686" stroke-linecap="round"/>
<path d="M5.49994 69.5293V67.9993C5.49994 66.2754 6.18476 64.6221 7.40373 63.4032C8.6227 62.1842 10.276 61.4994 11.9999 61.4994C13.7238 61.4994 15.3771 62.1842 16.596 63.4032C17.815 64.6221 18.4998 66.2754 18.4998 67.9993V69.5293C18.4998 70.9493 19.0598 72.3093 20.0698 73.3193L20.0998 73.3493C20.3598 73.6093 20.4998 73.9492 20.4998 74.3192V77.2492C20.4998 77.3892 20.3898 77.4992 20.2498 77.4992H3.74996C3.68366 77.4992 3.62007 77.4729 3.57319 77.426C3.5263 77.3791 3.49996 77.3155 3.49996 77.2492V74.3192C3.49996 73.9492 3.63996 73.6093 3.89996 73.3493L3.92996 73.3193C4.92995 72.3193 5.49994 70.9493 5.49994 69.5293V69.5293Z" stroke="#868686" stroke-linejoin="round"/>
<path d="M21.9998 8.9999L12.8999 2.16997C12.6402 1.97524 12.3244 1.86998 11.9999 1.86998C11.6753 1.86998 11.3595 1.97524 11.0999 2.16997L1.99998 8.9999M4.49995 10.7499V21.2498C4.49995 21.3898 4.60995 21.4998 4.74995 21.4998H9.7499C9.8899 21.4998 9.9999 21.3898 9.9999 21.2498V15.7498C9.9999 15.6098 10.1099 15.4998 10.2499 15.4998H13.7499C13.8899 15.4998 13.9999 15.6098 13.9999 15.7498V21.2498C13.9999 21.3898 14.1099 21.4998 14.2499 21.4998H19.2498C19.3898 21.4998 19.4998 21.3898 19.4998 21.2498V10.7499H4.49995Z" stroke="#868686" stroke-linecap="round" stroke-linejoin="round"/>
<path d="M4.5002 124.249V138.999C4.5002 139.199 4.7402 139.319 4.90019 139.199L10.3501 135.109C10.3934 135.076 10.446 135.059 10.5001 135.059C10.5542 135.059 10.6069 135.076 10.6501 135.109L16.1001 139.199C16.2601 139.319 16.5001 139.199 16.5001 138.999V124.249C16.5001 124.182 16.4737 124.119 16.4269 124.072C16.38 124.025 16.3164 123.999 16.2501 123.999H4.7502C4.68389 123.999 4.6203 124.025 4.57342 124.072C4.52654 124.119 4.5002 124.182 4.5002 124.249Z" fill="black" stroke="black" stroke-linecap="round"/>
<path d="M8.00016 123.999V121.249C8.00016 121.109 8.11016 120.999 8.25016 120.999H19.75C19.89 120.999 20 121.109 20 121.249V134.499" stroke="black" stroke-linecap="round"/>
</svg>
