<svg width="58" height="26" viewBox="0 0 58 26" fill="none" xmlns="http://www.w3.org/2000/svg">
<path d="M18 3.5C18 3.36739 18.0527 3.24021 18.1464 3.14645C18.2402 3.05268 18.3674 3 18.5 3C18.6326 3 18.7598 3.05268 18.8536 3.14645C18.9473 3.24021 19 3.36739 19 3.5V6H21.5C21.6326 6 21.7598 6.05268 21.8536 6.14645C21.9473 6.24021 22 6.36739 22 6.5C22 6.63261 21.9473 6.75979 21.8536 6.85355C21.7598 6.94732 21.6326 7 21.5 7H19V9.5C19 9.63261 18.9473 9.75979 18.8536 9.85355C18.7598 9.94732 18.6326 10 18.5 10C18.3674 10 18.2402 9.94732 18.1464 9.85355C18.0527 9.75979 18 9.63261 18 9.5V7H15.5C15.3674 7 15.2402 6.94732 15.1464 6.85355C15.0527 6.75979 15 6.63261 15 6.5C15 6.36739 15.0527 6.24021 15.1464 6.14645C15.2402 6.05268 15.3674 6 15.5 6H18V3.5ZM7 8C7 7.73478 7.10536 7.48043 7.29289 7.29289C7.48043 7.10536 7.73478 7 8 7H11.5C11.6326 7 11.7598 6.94732 11.8536 6.85355C11.9473 6.75979 12 6.63261 12 6.5C12 6.36739 11.9473 6.24021 11.8536 6.14645C11.7598 6.05268 11.6326 6 11.5 6H8C7.46957 6 6.96086 6.21071 6.58579 6.58579C6.21071 6.96086 6 7.46957 6 8V22C6 22.0929 6.02586 22.1839 6.07467 22.2629C6.12349 22.3419 6.19334 22.4057 6.27639 22.4472C6.35945 22.4887 6.45242 22.5063 6.5449 22.498C6.63738 22.4896 6.72572 22.4557 6.8 22.4L12.5 18L18.2 22.4C18.2743 22.4557 18.3626 22.4896 18.4551 22.498C18.5476 22.5063 18.6406 22.4887 18.7236 22.4472C18.8067 22.4057 18.8765 22.3419 18.9253 22.2629C18.9741 22.1839 19 22.0929 19 22V13.5C19 13.3674 18.9473 13.2402 18.8536 13.1464C18.7598 13.0527 18.6326 13 18.5 13C18.3674 13 18.2402 13.0527 18.1464 13.1464C18.0527 13.2402 18 13.3674 18 13.5V20.98L12.8 16.98C12.7135 16.9151 12.6082 16.88 12.5 16.88C12.3918 16.88 12.2865 16.9151 12.2 16.98L7 20.98V8V8Z" fill="#292929"/>
<path fill-rule="evenodd" clip-rule="evenodd" d="M38 12.5C38 13.05 38.2 13.52 38.59 13.91C38.98 14.31 39.45 14.5 40 14.5C40.55 14.5 41.02 14.3 41.41 13.91C41.81 13.52 42 13.05 42 12.5C42 11.95 41.8 11.48 41.41 11.09C41.2275 10.9008 41.0084 10.7509 40.7659 10.6495C40.5234 10.548 40.2628 10.4972 40 10.5C39.45 10.5 38.98 10.7 38.59 11.09C38.19 11.48 38 11.95 38 12.5ZM43.62 12.5C43.62 13.05 43.82 13.52 44.2 13.91C44.6 14.31 45.07 14.5 45.62 14.5C46.17 14.5 46.64 14.3 47.03 13.91C47.43 13.52 47.62 13.05 47.62 12.5C47.62 11.95 47.42 11.48 47.03 11.09C46.8475 10.9008 46.6284 10.7509 46.3859 10.6495C46.1434 10.548 45.8828 10.4972 45.62 10.5C45.07 10.5 44.59 10.7 44.2 11.09C43.81 11.48 43.62 11.95 43.62 12.5ZM49.22 12.5C49.22 13.05 49.42 13.52 49.8 13.91C50.2 14.31 50.67 14.5 51.23 14.5C51.79 14.5 52.26 14.3 52.65 13.91C53.04 13.52 53.23 13.05 53.23 12.5C53.23 11.95 53.03 11.48 52.65 11.09C52.4664 10.8996 52.2456 10.749 52.0013 10.6475C51.757 10.546 51.4945 10.4958 51.23 10.5C50.67 10.5 50.19 10.7 49.8 11.09C49.41 11.48 49.22 11.95 49.22 12.5Z" fill="black"/>
</svg>
