<svg width="18" height="17" viewBox="0 0 18 17" fill="none" xmlns="http://www.w3.org/2000/svg">
<path fill-rule="evenodd" clip-rule="evenodd" d="M16.2999 0H0.699995C0.514345 0 0.336298 0.0737492 0.205024 0.205024C0.0737492 0.336298 0 0.514345 0 0.699995V16.2999C0 16.6799 0.319998 16.9999 0.699995 16.9999H9.02993V10.6199H6.90995V7.96994H9.02993V5.83996C9.02993 3.63997 10.4299 2.56998 12.3799 2.56998C13.3199 2.56998 14.1299 2.63998 14.3599 2.66998V4.96996H12.9999C11.9399 4.96996 11.6899 5.46996 11.6899 6.20996V7.96994H14.3399L13.8099 10.6199H11.6999L11.7399 16.9999H16.2999C16.3926 17.0012 16.4847 16.9841 16.5708 16.9495C16.6569 16.9149 16.7353 16.8636 16.8013 16.7984C16.8674 16.7333 16.9199 16.6557 16.9557 16.5701C16.9915 16.4845 17.0099 16.3927 17.0099 16.2999V0.699995C17.0099 0.514345 16.9361 0.336298 16.8049 0.205024C16.6736 0.0737492 16.4955 0 16.3099 0" fill="#3B5998"/>
</svg>
