<svg width="25" height="25" viewBox="0 0 25 25" fill="none" xmlns="http://www.w3.org/2000/svg">
<path fill-rule="evenodd" clip-rule="evenodd" d="M5 12.5C5 13.052 5.195 13.523 5.586 13.914C5.976 14.304 6.448 14.5 7 14.5C7.552 14.5 8.023 14.305 8.414 13.914C8.804 13.524 9 13.052 9 12.5C9 11.948 8.805 11.477 8.414 11.086C8.23084 10.8969 8.01087 10.7474 7.76768 10.6466C7.52448 10.5458 7.26322 10.4959 7 10.5C6.448 10.5 5.977 10.695 5.586 11.086C5.196 11.476 5 11.948 5 12.5ZM10.617 12.5C10.617 13.052 10.813 13.523 11.203 13.914C11.594 14.304 12.066 14.5 12.617 14.5C13.169 14.5 13.64 14.305 14.031 13.914C14.421 13.524 14.617 13.052 14.617 12.5C14.617 11.948 14.422 11.477 14.031 11.086C13.8478 10.8969 13.6279 10.7474 13.3847 10.6466C13.1415 10.5458 12.8802 10.4959 12.617 10.5C12.066 10.5 11.594 10.695 11.203 11.086C10.813 11.476 10.617 11.948 10.617 12.5ZM16.217 12.5C16.217 13.052 16.412 13.523 16.803 13.914C17.193 14.304 17.671 14.5 18.235 14.5C18.786 14.5 19.258 14.305 19.648 13.914C20.039 13.524 20.235 13.052 20.235 12.5C20.235 11.948 20.039 11.477 19.648 11.086C19.465 10.897 19.2451 10.7476 19.0021 10.6468C18.7591 10.546 18.4981 10.496 18.235 10.5C17.67 10.5 17.193 10.695 16.803 11.086C16.413 11.476 16.217 11.948 16.216 12.5H16.217Z" fill="black" fill-opacity="0.54"/>
</svg>
