<svg width="24" height="201" viewBox="0 0 24 201" fill="none" xmlns="http://www.w3.org/2000/svg">
<path d="M4.5 21.25V10.87C4.5 10.8 4.54 10.72 4.6 10.67L11.85 5.24C11.8933 5.20755 11.9459 5.19 12 5.19C12.0541 5.19 12.1067 5.20755 12.15 5.24L19.4 10.68C19.46 10.72 19.5 10.8 19.5 10.88V21.25C19.5 21.39 19.39 21.5 19.25 21.5H14.75C14.6837 21.5 14.6201 21.4737 14.5732 21.4268C14.5263 21.3799 14.5 21.3163 14.5 21.25V15.75C14.5 15.6837 14.4737 15.6201 14.4268 15.5732C14.3799 15.5263 14.3163 15.5 14.25 15.5H9.75C9.6837 15.5 9.62011 15.5263 9.57322 15.5732C9.52634 15.6201 9.5 15.6837 9.5 15.75V21.25C9.5 21.39 9.39 21.5 9.25 21.5H4.75C4.6837 21.5 4.62011 21.4737 4.57322 21.4268C4.52634 21.3799 4.5 21.3163 4.5 21.25Z" fill="black" stroke="black" stroke-linejoin="round"/>
<path d="M22 9L12.9 2.17C12.6404 1.97526 12.3246 1.87 12 1.87C11.6754 1.87 11.3596 1.97526 11.1 2.17L2 9" stroke="black" stroke-linecap="round" stroke-linejoin="round"/>
<path d="M15 77.5C15 78.2956 14.6839 79.0587 14.1213 79.6213C13.5587 80.1839 12.7956 80.5 12 80.5C11.2044 80.5 10.4413 80.1839 9.87868 79.6213C9.31607 79.0587 9 78.2956 9 77.5" stroke="#868686" stroke-linecap="round"/>
<path d="M5.5 69.53V68C5.5 66.2761 6.18482 64.6228 7.40381 63.4038C8.62279 62.1848 10.2761 61.5 12 61.5C13.7239 61.5 15.3772 62.1848 16.5962 63.4038C17.8152 64.6228 18.5 66.2761 18.5 68V69.53C18.5 70.95 19.06 72.31 20.07 73.32L20.1 73.35C20.36 73.61 20.5 73.95 20.5 74.32V77.25C20.5 77.39 20.39 77.5 20.25 77.5H3.75C3.6837 77.5 3.62011 77.4737 3.57322 77.4268C3.52634 77.3799 3.5 77.3163 3.5 77.25V74.32C3.5 73.95 3.64 73.61 3.9 73.35L3.93 73.32C4.93 72.32 5.5 70.95 5.5 69.53V69.53Z" stroke="#868686" stroke-linejoin="round"/>
<path d="M4.5 124.25V139C4.5 139.2 4.74 139.32 4.9 139.2L10.35 135.11C10.3933 135.078 10.4459 135.06 10.5 135.06C10.5541 135.06 10.6067 135.078 10.65 135.11L16.1 139.2C16.26 139.32 16.5 139.2 16.5 139V124.25C16.5 124.184 16.4737 124.12 16.4268 124.073C16.3799 124.026 16.3163 124 16.25 124H4.75C4.6837 124 4.62011 124.026 4.57322 124.073C4.52634 124.12 4.5 124.184 4.5 124.25Z" stroke="#868686" stroke-linecap="round"/>
<path d="M8 124V121.25C8 121.11 8.11 121 8.25 121H19.75C19.89 121 20 121.11 20 121.25V134.5" stroke="#868686" stroke-linecap="round"/>
<path d="M4.75 198.5H19.25C19.39 198.5 19.5 198.39 19.5 198.25V179.75C19.5 179.684 19.4737 179.62 19.4268 179.573C19.3799 179.526 19.3163 179.5 19.25 179.5H4.75C4.6837 179.5 4.62011 179.526 4.57322 179.573C4.52634 179.62 4.5 179.684 4.5 179.75V198.25C4.5 198.39 4.61 198.5 4.75 198.5Z" stroke="#868686"/>
<path d="M8 189H16M8 185.5H16H8ZM8 192.5H13H8Z" stroke="#868686" stroke-linecap="round"/>
</svg>
