<svg width="41" height="23" viewBox="0 0 41 23" fill="none" xmlns="http://www.w3.org/2000/svg">
<g clip-path="url(#clip0_984_2483)">
<path d="M22.8432 11.5002C22.8432 17.8514 17.7295 23 11.4218 23C5.11409 23 0 17.8502 0 11.5002C0 5.15017 5.1137 0 11.4218 0C17.7299 0 22.8432 5.14901 22.8432 11.5002ZM35.3729 11.5002C35.3729 17.4785 32.8161 22.3267 29.662 22.3267C26.508 22.3267 23.9511 17.4785 23.9511 11.5002C23.9511 5.52192 26.5076 0.673652 29.6616 0.673652C32.8157 0.673652 35.3725 5.52037 35.3725 11.5002H35.3729ZM40.4979 11.5002C40.4979 16.8553 39.5988 21.1991 38.4893 21.1991C37.3799 21.1991 36.4812 16.8564 36.4812 11.5002C36.4812 6.14397 37.3803 1.80132 38.4893 1.80132C39.5984 1.80132 40.4979 6.14358 40.4979 11.5002Z" fill="black"/>
</g>
<defs>
<clipPath id="clip0_984_2483">
<rect width="40.4979" height="23" fill="white"/>
</clipPath>
</defs>
</svg>
