<svg width="13" height="16" viewBox="0 0 13 16" fill="none" xmlns="http://www.w3.org/2000/svg">
<path d="M10.8599 8.48048C10.8799 10.9006 12.98 11.7007 13 11.7107C12.98 11.7707 12.66 12.8607 11.9 13.9808C11.2299 14.9608 10.5399 15.9209 9.44982 15.9409C8.37976 15.9609 8.03974 15.3109 6.81967 15.3109C5.5896 15.3109 5.21958 15.9209 4.19952 15.9609C3.14946 16.0009 2.34942 14.9108 1.67938 13.9408C0.309302 11.9607 -0.740756 8.34047 0.669323 5.90033C0.998682 5.30934 1.47611 4.81419 2.05472 4.46352C2.63332 4.11285 3.29319 3.91873 3.96951 3.90022C4.99957 3.88022 5.96962 4.60026 6.60966 4.60026C7.23969 4.60026 8.40976 3.73021 9.65983 3.86022C10.1799 3.88022 11.6399 4.07023 12.58 5.44031C12.51 5.49031 10.8399 6.46036 10.8599 8.48048ZM8.84978 2.55014C9.40982 1.87011 9.77984 0.930052 9.67983 0C8.87979 0.0300017 7.89973 0.54003 7.3297 1.21007C6.80967 1.8101 6.35964 2.76016 6.47965 3.68021C7.3797 3.75021 8.28975 3.22018 8.84978 2.55014Z" fill="black"/>
</svg>
