<svg width="25" height="25" viewBox="0 0 25 25" fill="none" xmlns="http://www.w3.org/2000/svg">
<path d="M20.0698 18.93L15.9098 14.78C16.8782 13.5861 17.3515 12.0659 17.2318 10.5332C17.1121 9.00049 16.4087 7.5722 15.2666 6.54303C14.1246 5.51386 12.631 4.96234 11.0942 5.00227C9.55733 5.0422 8.09444 5.67052 7.00736 6.75761C5.92028 7.84469 5.29195 9.30757 5.25203 10.8444C5.2121 12.3813 5.76362 13.8748 6.79279 15.0169C7.82196 16.1589 9.25025 16.8624 10.7829 16.982C12.3156 17.1017 13.8358 16.6285 15.0298 15.66L19.1798 19.82C19.2382 19.8784 19.3076 19.9248 19.3839 19.9564C19.4603 19.9881 19.5421 20.0043 19.6248 20.0043C19.7074 20.0043 19.7892 19.9881 19.8656 19.9564C19.942 19.9248 20.0113 19.8784 20.0698 19.82C20.1282 19.7616 20.1746 19.6922 20.2062 19.6158C20.2378 19.5395 20.2541 19.4577 20.2541 19.375C20.2541 19.2924 20.2378 19.2105 20.2062 19.1342C20.1746 19.0578 20.1282 18.9884 20.0698 18.93V18.93ZM6.49977 11C6.49977 9.74023 7.00021 8.53205 7.89101 7.64125C8.78181 6.75045 9.98999 6.25001 11.2498 6.25001C12.5095 6.25001 13.7177 6.75045 14.6085 7.64125C15.4993 8.53205 15.9998 9.74023 15.9998 11C15.9998 12.2598 15.4993 13.468 14.6085 14.3588C13.7177 15.2496 12.5095 15.75 11.2498 15.75C9.98999 15.75 8.78181 15.2496 7.89101 14.3588C7.00021 13.468 6.49977 12.2598 6.49977 11V11Z" fill="#080808"/>
</svg>
