<svg width="283" height="174" viewBox="0 0 283 174" fill="none" xmlns="http://www.w3.org/2000/svg">
<g clip-path="url(#clip0_984_2694)">
<path opacity="0.15" d="M141.5 229C219.648 229 283 165.648 283 87.5C283 9.35171 219.648 -54 141.5 -54C63.3517 -54 0 9.35171 0 87.5C0 165.648 63.3517 229 141.5 229Z" fill="#E8F3E8"/>
<path d="M141.5 117C157.792 117 171 103.792 171 87.5C171 71.2076 157.792 58 141.5 58C125.208 58 112 71.2076 112 87.5C112 103.792 125.208 117 141.5 117Z" fill="white"/>
<path fill-rule="evenodd" clip-rule="evenodd" d="M148.71 74.32C148.737 74.1598 148.821 74.0151 148.948 73.9134C149.075 73.8118 149.234 73.7603 149.396 73.769C149.558 73.7777 149.712 73.8458 149.827 73.9604C149.942 74.0749 150.011 74.2279 150.02 74.39V77.67H153.3C153.395 77.6533 153.492 77.6576 153.585 77.6825C153.678 77.7075 153.765 77.7525 153.839 77.8145C153.913 77.8764 153.972 77.9538 154.013 78.0411C154.053 78.1285 154.074 78.2237 154.074 78.32C154.074 78.4164 154.053 78.5116 154.013 78.5989C153.972 78.6863 153.913 78.7636 153.839 78.8256C153.765 78.8875 153.678 78.9325 153.585 78.9575C153.492 78.9825 153.395 78.9867 153.3 78.97H150.02V82.26C150.037 82.3549 150.032 82.4523 150.007 82.5454C149.983 82.6385 149.937 82.725 149.876 82.7988C149.814 82.8726 149.736 82.9319 149.649 82.9727C149.562 83.0134 149.466 83.0345 149.37 83.0345C149.274 83.0345 149.178 83.0134 149.091 82.9727C149.004 82.9319 148.926 82.8726 148.864 82.7988C148.803 82.725 148.757 82.6385 148.733 82.5454C148.708 82.4523 148.703 82.3549 148.72 82.26V78.98H145.43C145.27 78.9602 145.123 78.8827 145.017 78.7621C144.91 78.6415 144.851 78.486 144.851 78.325C144.851 78.164 144.91 78.0086 145.017 77.8879C145.123 77.7673 145.27 77.6898 145.43 77.67H148.71V74.39V74.32ZM134.94 78.32C134.22 78.32 133.64 78.91 133.64 79.63V97.31L141.1 91.57C141.215 91.4824 141.355 91.435 141.5 91.435C141.645 91.435 141.785 91.4824 141.9 91.57L149.37 97.31V87.5C149.353 87.4051 149.358 87.3077 149.383 87.2146C149.407 87.1216 149.453 87.0351 149.514 86.9613C149.576 86.8875 149.654 86.8281 149.741 86.7874C149.828 86.7467 149.924 86.7256 150.02 86.7256C150.116 86.7256 150.212 86.7467 150.299 86.7874C150.386 86.8281 150.464 86.8875 150.526 86.9613C150.587 87.0351 150.633 87.1216 150.657 87.2146C150.682 87.3077 150.687 87.4051 150.67 87.5V98.64C150.668 98.7609 150.632 98.8788 150.568 98.981C150.503 99.0831 150.411 99.1654 150.303 99.2191C150.195 99.2728 150.074 99.2956 149.953 99.2852C149.833 99.2748 149.718 99.2315 149.62 99.16L141.5 92.92L133.38 99.16C133.284 99.2384 133.167 99.2876 133.043 99.3016C132.92 99.3157 132.795 99.2941 132.684 99.2394C132.572 99.1847 132.478 99.0991 132.414 98.9929C132.35 98.8867 132.317 98.7642 132.32 98.64V79.64C132.319 79.2951 132.385 78.9534 132.517 78.6343C132.648 78.3153 132.84 78.0253 133.084 77.7809C133.327 77.5366 133.617 77.3427 133.935 77.2104C134.254 77.0781 134.595 77.01 134.94 77.01H140.19C140.35 77.0298 140.497 77.1073 140.603 77.2279C140.71 77.3486 140.769 77.504 140.769 77.665C140.769 77.826 140.71 77.9815 140.603 78.1021C140.497 78.2227 140.35 78.3002 140.19 78.32H134.94Z" fill="#0F730C"/>
</g>
<defs>
<clipPath id="clip0_984_2694">
<rect width="283" height="174" fill="white"/>
</clipPath>
</defs>
</svg>
