<svg width="24" height="201" viewBox="0 0 24 201" fill="none" xmlns="http://www.w3.org/2000/svg">
<path d="M4.49995 124.249V138.999C4.49995 139.199 4.73995 139.319 4.89995 139.199L10.3499 135.109C10.3932 135.076 10.4458 135.059 10.4999 135.059C10.554 135.059 10.6066 135.076 10.6499 135.109L16.0998 139.199C16.2598 139.319 16.4998 139.199 16.4998 138.999V124.249C16.4998 124.182 16.4735 124.119 16.4266 124.072C16.3797 124.025 16.3161 123.999 16.2498 123.999H4.74995C4.68365 123.999 4.62006 124.025 4.57318 124.072C4.52629 124.119 4.49995 124.182 4.49995 124.249Z" stroke="#868686" stroke-linecap="round"/>
<path d="M7.99992 123.999V121.249C7.99992 121.109 8.10992 120.999 8.24992 120.999H19.7498C19.8898 120.999 19.9998 121.109 19.9998 121.249V134.499" stroke="#868686" stroke-linecap="round"/>
<path d="M21.9998 8.9999L12.8999 2.16997C12.6402 1.97524 12.3244 1.86998 11.9999 1.86998C11.6753 1.86998 11.3595 1.97524 11.0999 2.16997L1.99998 8.9999M4.49995 10.7499V21.2498C4.49995 21.3898 4.60995 21.4998 4.74995 21.4998H9.7499C9.8899 21.4998 9.9999 21.3898 9.9999 21.2498V15.7498C9.9999 15.6098 10.1099 15.4998 10.2499 15.4998H13.7499C13.8899 15.4998 13.9999 15.6098 13.9999 15.7498V21.2498C13.9999 21.3898 14.1099 21.4998 14.2499 21.4998H19.2498C19.3898 21.4998 19.4998 21.3898 19.4998 21.2498V10.7499H4.49995Z" stroke="#868686" stroke-linecap="round" stroke-linejoin="round"/>
<path fill-rule="evenodd" clip-rule="evenodd" d="M4.0002 179.748C4.0002 179.338 4.3402 178.998 4.7502 178.998H19.25C19.66 178.998 20 179.338 20 179.748V198.248C20 198.658 19.66 198.998 19.25 198.998H4.7502C4.55129 198.998 4.36052 198.919 4.21987 198.778C4.07922 198.638 4.0002 198.447 4.0002 198.248V179.748ZM7.00017 185.498C7.00017 185.218 7.22017 184.998 7.50017 184.998H16.5001C16.6327 184.998 16.7599 185.051 16.8536 185.145C16.9474 185.238 17.0001 185.366 17.0001 185.498C17.0001 185.631 16.9474 185.758 16.8536 185.852C16.7599 185.945 16.6327 185.998 16.5001 185.998H7.50017C7.36756 185.998 7.24039 185.945 7.14662 185.852C7.05285 185.758 7.00017 185.631 7.00017 185.498ZM7.00017 192.498C7.00017 192.218 7.22017 191.998 7.50017 191.998H12.5001C12.6327 191.998 12.7599 192.051 12.8537 192.144C12.9474 192.238 13.0001 192.365 13.0001 192.498C13.0001 192.631 12.9474 192.758 12.8537 192.852C12.7599 192.945 12.6327 192.998 12.5001 192.998H7.50017C7.36756 192.998 7.24039 192.945 7.14662 192.852C7.05285 192.758 7.00017 192.631 7.00017 192.498ZM7.00017 188.998C7.00017 188.718 7.22017 188.498 7.50017 188.498H16.5001C16.6327 188.498 16.7599 188.551 16.8536 188.645C16.9474 188.738 17.0001 188.865 17.0001 188.998C17.0001 189.131 16.9474 189.258 16.8536 189.352C16.7599 189.445 16.6327 189.498 16.5001 189.498H7.50017C7.36756 189.498 7.24039 189.445 7.14662 189.352C7.05285 189.258 7.00017 189.131 7.00017 188.998Z" fill="black"/>
</svg>
