<svg width="25" height="25" viewBox="0 0 25 25" fill="none" xmlns="http://www.w3.org/2000/svg">
<path d="M18 2.5C18 2.36739 18.0527 2.24021 18.1464 2.14645C18.2402 2.05268 18.3674 2 18.5 2C18.6326 2 18.7598 2.05268 18.8536 2.14645C18.9473 2.24021 19 2.36739 19 2.5V5H21.5C21.6326 5 21.7598 5.05268 21.8536 5.14645C21.9473 5.24021 22 5.36739 22 5.5C22 5.63261 21.9473 5.75979 21.8536 5.85355C21.7598 5.94732 21.6326 6 21.5 6H19V8.5C19 8.63261 18.9473 8.75979 18.8536 8.85355C18.7598 8.94732 18.6326 9 18.5 9C18.3674 9 18.2402 8.94732 18.1464 8.85355C18.0527 8.75979 18 8.63261 18 8.5V6H15.5C15.3674 6 15.2402 5.94732 15.1464 5.85355C15.0527 5.75979 15 5.63261 15 5.5C15 5.36739 15.0527 5.24021 15.1464 5.14645C15.2402 5.05268 15.3674 5 15.5 5H18V2.5ZM7 7C7 6.73478 7.10536 6.48043 7.29289 6.29289C7.48043 6.10536 7.73478 6 8 6H11.5C11.6326 6 11.7598 5.94732 11.8536 5.85355C11.9473 5.75979 12 5.63261 12 5.5C12 5.36739 11.9473 5.24021 11.8536 5.14645C11.7598 5.05268 11.6326 5 11.5 5H8C7.46957 5 6.96086 5.21071 6.58579 5.58579C6.21071 5.96086 6 6.46957 6 7V21C6 21.0929 6.02586 21.1839 6.07467 21.2629C6.12349 21.3419 6.19334 21.4057 6.27639 21.4472C6.35945 21.4887 6.45242 21.5063 6.5449 21.498C6.63738 21.4896 6.72572 21.4557 6.8 21.4L12.5 17L18.2 21.4C18.2743 21.4557 18.3626 21.4896 18.4551 21.498C18.5476 21.5063 18.6406 21.4887 18.7236 21.4472C18.8067 21.4057 18.8765 21.3419 18.9253 21.2629C18.9741 21.1839 19 21.0929 19 21V12.5C19 12.3674 18.9473 12.2402 18.8536 12.1464C18.7598 12.0527 18.6326 12 18.5 12C18.3674 12 18.2402 12.0527 18.1464 12.1464C18.0527 12.2402 18 12.3674 18 12.5V19.98L12.8 15.98C12.7135 15.9151 12.6082 15.88 12.5 15.88C12.3918 15.88 12.2865 15.9151 12.2 15.98L7 19.98V7V7Z" fill="#757575"/>
</svg>
