<svg width="25" height="25" viewBox="0 0 25 25" fill="none" xmlns="http://www.w3.org/2000/svg">
<path d="M20.07 18.93L15.91 14.78C16.8785 13.5861 17.3517 12.0659 17.232 10.5332C17.1124 9.00049 16.4089 7.5722 15.2669 6.54303C14.1248 5.51386 12.6313 4.96234 11.0944 5.00227C9.55757 5.0422 8.09469 5.67052 7.00761 6.75761C5.92052 7.84469 5.2922 9.30757 5.25227 10.8444C5.21234 12.3813 5.76386 13.8748 6.79303 15.0169C7.8222 16.1589 9.25049 16.8624 10.7832 16.982C12.3159 17.1017 13.8361 16.6285 15.03 15.66L19.18 19.82C19.2384 19.8784 19.3078 19.9248 19.3842 19.9564C19.4605 19.9881 19.5424 20.0043 19.625 20.0043C19.7077 20.0043 19.7895 19.9881 19.8658 19.9564C19.9422 19.9248 20.0116 19.8784 20.07 19.82C20.1284 19.7616 20.1748 19.6922 20.2064 19.6158C20.2381 19.5395 20.2543 19.4577 20.2543 19.375C20.2543 19.2924 20.2381 19.2105 20.2064 19.1342C20.1748 19.0578 20.1284 18.9884 20.07 18.93V18.93ZM6.50001 11C6.50001 9.74023 7.00045 8.53205 7.89125 7.64125C8.78205 6.75045 9.99023 6.25001 11.25 6.25001C12.5098 6.25001 13.718 6.75045 14.6088 7.64125C15.4996 8.53205 16 9.74023 16 11C16 12.2598 15.4996 13.468 14.6088 14.3588C13.718 15.2496 12.5098 15.75 11.25 15.75C9.99023 15.75 8.78205 15.2496 7.89125 14.3588C7.00045 13.468 6.50001 12.2598 6.50001 11V11Z" fill="#080808"/>
</svg>
