<svg width="25" height="25" viewBox="0 0 25 25" fill="none" xmlns="http://www.w3.org/2000/svg">
<path fill-rule="evenodd" clip-rule="evenodd" d="M20.66 12.7C20.66 12.09 20.61 11.51 20.51 10.96H12.5V14.24H17.08C16.9855 14.7612 16.7861 15.2577 16.4938 15.6995C16.2016 16.1413 15.8227 16.5191 15.38 16.81V18.94H18.12C18.9576 18.1364 19.6166 17.1654 20.0542 16.0903C20.4918 15.0152 20.6982 13.8601 20.66 12.7V12.7Z" fill="#4285F4"/>
<path fill-rule="evenodd" clip-rule="evenodd" d="M12.4999 21C14.571 21.0586 16.5858 20.3214 18.1299 18.94L15.3799 16.81C14.5213 17.3583 13.5183 17.6369 12.4999 17.61C11.4399 17.5988 10.4101 17.2549 9.55602 16.6269C8.70194 15.9989 8.06668 15.1185 7.7399 14.11H4.8999V16.31C5.60686 17.7199 6.69213 18.9052 8.03433 19.7335C9.37653 20.5618 10.9227 21.0003 12.4999 21V21Z" fill="#34A853"/>
<path fill-rule="evenodd" clip-rule="evenodd" d="M7.74 14.1201C7.39077 13.0717 7.39077 11.9384 7.74 10.8901V8.69006H4.9C4.30729 9.87261 3.9991 11.1773 4 12.5001C4 13.8701 4.33 15.1701 4.9 16.3201L7.74 14.1201V14.1201Z" fill="#FBBC05"/>
<path fill-rule="evenodd" clip-rule="evenodd" d="M12.4999 7.38002C13.708 7.3601 14.8754 7.81629 15.7499 8.65002L18.1899 6.21002C16.65 4.76587 14.6109 3.97387 12.4999 4.00002C10.9238 3.99877 9.37831 4.43578 8.03621 5.26223C6.69412 6.08867 5.60824 7.27201 4.8999 8.68002L7.7399 10.88C8.06668 9.87153 8.70194 8.99114 9.55602 8.36314C10.4101 7.73514 11.4399 7.39125 12.4999 7.38002V7.38002Z" fill="#EA4335"/>
</svg>
