<svg width="25" height="25" viewBox="0 0 25 25" fill="none" xmlns="http://www.w3.org/2000/svg">
<path d="M19.673 14.67L18 13.15V9.50399C18.0001 8.73613 17.8394 7.97677 17.5282 7.27477C17.2171 6.57278 16.7624 5.94371 16.1935 5.42806C15.6245 4.91242 14.9539 4.52164 14.2247 4.28085C13.4956 4.04005 12.7241 3.9546 11.96 4.02999C9.09999 4.30299 7 6.86798 7 9.73998V13.15L5.32001 14.703C5.11601 14.893 5 15.159 5 15.437V18C5 18.2652 5.10537 18.5195 5.29291 18.7071C5.48044 18.8946 5.73478 19 6 19H9.48999C9.63436 19.6918 10.0123 20.3129 10.5604 20.759C11.1085 21.2051 11.7933 21.4491 12.5 21.45C13.2066 21.4489 13.8914 21.2048 14.4394 20.7587C14.9875 20.3126 15.3655 19.6917 15.51 19H19C19.2652 19 19.5196 18.8946 19.7071 18.7071C19.8946 18.5195 20 18.2652 20 18V15.41C20 15.13 19.88 14.86 19.673 14.67ZM12.5 20.3C11.658 20.3 10.95 19.754 10.688 19H14.312C14.1829 19.3784 13.9389 19.707 13.6141 19.94C13.2892 20.1731 12.8998 20.2989 12.5 20.3V20.3ZM18.85 17.85H6.14999V15.503L7.78 13.993C8.016 13.777 8.14999 13.471 8.14999 13.15V9.73998C8.14999 7.38998 9.87001 5.38398 12.07 5.17498C12.6746 5.11539 13.2849 5.18301 13.8618 5.37347C14.4386 5.56392 14.9692 5.87301 15.4194 6.28085C15.8697 6.68869 16.2295 7.18626 16.4759 7.74154C16.7223 8.29682 16.8497 8.89751 16.85 9.505V13.15C16.85 13.474 16.987 13.783 17.226 14L18.85 15.477V17.85V17.85Z" fill="black" fill-opacity="0.54"/>
</svg>
