<svg width="25" height="25" viewBox="0 0 25 25" fill="none" xmlns="http://www.w3.org/2000/svg">
<path d="M22.3 4.30004C21.48 4.81004 20.58 5.18004 19.63 5.38004C19.241 4.95155 18.7685 4.60702 18.2416 4.36759C17.7148 4.12815 17.1445 3.99885 16.5659 3.98762C15.9872 3.97638 15.4124 4.08345 14.8766 4.30225C14.3408 4.52105 13.8554 4.84697 13.45 5.26004C12.646 6.06377 12.1929 7.15319 12.19 8.29004C12.19 8.63004 12.23 8.96004 12.27 9.29004C10.5671 9.19429 8.90329 8.74257 7.38582 7.96402C5.86834 7.18548 4.53096 6.09741 3.46 4.77004C3.08835 5.42487 2.87596 6.15795 2.84 6.91004C2.84892 7.61989 3.02793 8.31725 3.362 8.94364C3.69608 9.57002 4.17548 10.1072 4.76 10.51C4.08805 10.4849 3.4324 10.2961 2.85 9.96004V10.03C2.85 12.09 4.32 13.83 6.29 14.24C5.92 14.32 5.55 14.37 5.14 14.39L4.38 14.32C4.65397 15.1681 5.18351 15.9106 5.89603 16.4459C6.60856 16.9812 7.46921 17.2831 8.36 17.31C6.81582 18.4791 4.93669 19.1206 3 19.14L2 19.08C3.97191 20.3363 6.26193 21.0025 8.6 21C16.48 21 20.8 14.45 20.77 8.82004C20.79 8.59004 20.79 8.41004 20.77 8.20004C21.6241 7.60271 22.3543 6.84539 22.92 5.97004C22.15 6.34004 21.32 6.57004 20.47 6.67004C21.3627 6.1385 22.0204 5.28786 22.31 4.29004" fill="#55ACEE"/>
</svg>
