<svg width="24" height="201" viewBox="0 0 24 201" fill="none" xmlns="http://www.w3.org/2000/svg">
<path d="M4.50002 124.25V139C4.50002 139.2 4.74002 139.32 4.90002 139.2L10.35 135.11C10.3933 135.077 10.4459 135.06 10.5 135.06C10.5541 135.06 10.6067 135.077 10.65 135.11L16.1 139.2C16.26 139.32 16.5 139.2 16.5 139V124.25C16.5 124.184 16.4737 124.12 16.4268 124.073C16.3799 124.026 16.3163 124 16.25 124H4.75002C4.68372 124 4.62013 124.026 4.57325 124.073C4.52636 124.12 4.50002 124.184 4.50002 124.25Z" stroke="#868686" stroke-linecap="round"/>
<path d="M8.00002 124V121.25C8.00002 121.11 8.11002 121 8.25002 121H19.75C19.89 121 20 121.11 20 121.25V134.5" stroke="#868686" stroke-linecap="round"/>
<path d="M4.75002 198.5H19.25C19.39 198.5 19.5 198.39 19.5 198.25V179.75C19.5 179.683 19.4737 179.62 19.4268 179.573C19.3799 179.526 19.3163 179.5 19.25 179.5H4.75002C4.68372 179.5 4.62013 179.526 4.57325 179.573C4.52636 179.62 4.50002 179.683 4.50002 179.75V198.25C4.50002 198.39 4.61002 198.5 4.75002 198.5Z" stroke="#868686"/>
<path d="M8.00002 189H16M8.00002 185.5H16H8.00002ZM8.00002 192.5H13H8.00002Z" stroke="#868686" stroke-linecap="round"/>
<path d="M22 8.99998L12.9 2.16999C12.6403 1.97526 12.3245 1.86999 12 1.86999C11.6754 1.86999 11.3596 1.97526 11.1 2.16999L2 8.99998M4.49999 10.75V21.25C4.49999 21.39 4.60999 21.5 4.74999 21.5H9.74999C9.88999 21.5 9.99999 21.39 9.99999 21.25V15.75C9.99999 15.61 10.11 15.5 10.25 15.5H13.75C13.89 15.5 14 15.61 14 15.75V21.25C14 21.39 14.11 21.5 14.25 21.5H19.25C19.39 21.5 19.5 21.39 19.5 21.25V10.75H4.49999Z" stroke="#868686" stroke-linecap="round" stroke-linejoin="round"/>
</svg>
